<svg xmlns="http://www.w3.org/2000/svg" xmlns:xlink="http://www.w3.org/1999/xlink" width="169" height="24" viewBox="0 0 169 24"><defs><path id="fld2a" d="M1467.584 7476.618l.307 4.684h-6.047l-.116-4.39c0-1.42-.978-3.708-3.323-3.708h-11.896l-1.042-4.402h13.441c2.379 0 3.225-1.99 3.234-3.071.013-1.434-.79-2.425-1.84-2.725-.496-.136-1.075-.163-1.6-.163h-14.96v18.46h-5.297V7458h21.541c4.332 0 8.006 2.801 8.078 7.629-.072 3.55-2.492 5.505-3.355 5.93 2.446 1.268 2.9 3.423 2.875 5.058zm-62.574-3.088v-15.542h5.35v15.251c-.026 1.385.61 3.505 3.617 3.505h10.079c3.006 0 3.643-2.12 3.616-3.505v-15.25h5.35v15.54c0 4.418-1.886 7.8-7.737 7.8h-12.537c-5.85 0-7.738-3.382-7.738-7.8zm-43.374 3.998h-15.37l-2.477 3.774h-6.867l14.83-23.288h6.502l14.83 23.288h-6.939l-11.096-17.731-5.975 9.555h9.683zm20.578-1.053h18.545v4.827h-19.12c-6.182 0-8.338-3.834-8.338-7.882v-7.525c0-4.047 2.228-7.88 8.41-7.88h19.048v4.828h-18.473c-2.88 0-3.666 1.49-3.666 4.543v4.544c0 3.053.714 4.545 3.594 4.545zm112.336 1.053h-15.369l-2.478 3.774h-6.866l14.83-23.288h6.501l14.83 23.288h-6.938l-11.097-17.731-5.974 9.555h9.682z"/></defs><g><g transform="translate(-1337 -7458)"><use fill="#fdb822" xlink:href="#fld2a"/></g></g></svg>