<svg xmlns="http://www.w3.org/2000/svg" xmlns:xlink="http://www.w3.org/1999/xlink" width="174" height="24" viewBox="0 0 174 24"><defs><path id="48d7a" d="M701.75 7463.046h11.676v22.638h-7.389v-21.11h-4.287zm21.9 14.194h-8.025c0-5.052 4.447-9.147 9.933-9.147 3.992 0 6.413.869 7.865 2.3l-.02-5.775h-4.287v-1.572h11.676v5.57h9.76l5.017 12.038 2.554-5.75-2.736-6.288h8.118l5.017 11.768 4.379-10.151h-3.558v-1.617h15.599v17.068h-7.389v-15.451h-2.19l-6.567 15.451h-6.203l-3.193-7.995-3.375 7.995h-6.385l-6.568-15.451h-2.28v15.451h-7.389l-.541-1.702c-1.101 1.343-3.465 2.405-7.304 2.405-5.486 0-9.933-4.095-9.933-9.147h8.026c0 5.39 2.626 6.6 5.19 6.6 2.566 0 4.554-2.468 4.554-6.6 0-4.312-.904-6.96-4.553-6.96-2.565 0-5.191 1.48-5.191 6.96zm63.116-8.624h11.22v2.695c2.645-2.426 5.473-3.234 8.575-3.234 8.027-.18 8.666 4.761 8.666 7.456v10.151h-7.39v-9.792c0-3.503-1.915-5.03-4.743-5.03-2.827 0-5.108 3.144-5.108 4.85v9.972h-7.389v-15.451h-3.83zm-136.008 17.068l.009-20.931 8.475 10.151v9.073h5.017c3.74 0 6.02-1.078 6.112-4.402.09-3.323-2.19-4.67-5.93-4.67h-5.2v-1.887h5.018c3.74 0 5.29-1.077 5.29-4.402 0-2.785-1.368-3.863-5.108-3.863H646.29v-1.707h23.352c6.932 0 8.848 2.605 8.848 5.39 0 2.785-3.466 5.03-7.115 5.3 5.473.45 8.21 2.965 8.21 6.468-.092 5.48-6.112 5.48-8.849 5.48zm52.269-10.78v7.636l-7.389-3.863v-1.976c0-.674-.684-.764-1.277-.54-6.111 1.528-6.476 3.774-6.476 4.672 0 .899.638 3.235 3.648 2.965 3.01-.27 4.105-3.324 4.105-5.121l7.389 3.863c0 .809.274 2.605 1.003 3.144h-7.662c-.274-.27-.547-.989-.73-1.707-.638.899-3.557 2.156-7.845 2.156-4.287 0-7.297-1.976-7.297-5.749 0-3.773 4.606-4.447 5.61-4.626 1.003-.18 6.568-1.169 7.662-1.438 1.095-.27 1.779-1.392 1.779-2.29 0-.9-.274-2.336-3.466-2.336-3.193 0-3.74 2.245-3.831 4.042h-6.888c.457-2.874 3.877-5.93 10.81-5.93 6.932 0 10.855 2.068 10.855 7.098zm114.681-7.654v-.329c1.092 0 2.024.835 2.024 1.967 0 1.143-.932 1.978-2.024 1.978-1.102 0-2.034-.835-2.034-1.978 0-1.132.932-1.967 2.034-1.967v.329c-.917 0-1.632.705-1.632 1.638 0 .95.715 1.65 1.632 1.65.906 0 1.622-.7 1.622-1.65 0-.933-.716-1.638-1.622-1.638zm-.424.799v1.982h-.35v-2.275h.88c.546 0 .816.199.816.647 0 .408-.26.584-.599.626l.658 1.002h-.393l-.609-.986h-.403v-.292h.419c.297 0 .562-.021.562-.37 0-.283-.26-.334-.504-.334z"/></defs><g><g transform="translate(-646 -7463)"><use fill="#fdb822" xlink:href="#48d7a"/></g></g></svg>