<svg xmlns="http://www.w3.org/2000/svg" xmlns:xlink="http://www.w3.org/1999/xlink" width="172" height="172" viewBox="0 0 172 172"><defs><path id="ye1ka" d="M810 2474c47.496 0 86 38.503 86 86 0 47.496-38.504 86-86 86-47.497 0-86-38.504-86-86 0-47.497 38.503-86 86-86z"/><path id="ye1kc" d="M819.506 2573.018c-5.131-1.612-16.394 1.707-19.977-.698-2.086-1.4-2.526-8.73-3.02-11.638-.943-5.552-3.828-14.764 3.02-15.828 3.615-.563 8.6 0 12.312 0 3.104 0 9.281-.758 11.382.698 3.099 2.146.976 10.395.465 14.431-.712 5.619-.651 10.911-4.182 13.035zm-27.875-23.975c2.085 6.912 2.295 15.7 3.484 23.51-2.43 2.662-10.624 2.167-15.331 2.095-5.084-.079-8.528-3.875-7.201-9.544 1.454-6.21 10.864-13.718 16.26-16.06.6-.26 1.675-.392 2.788 0zm33.45 24.208c-.032-3.696.445-8.018.93-12.103.478-4.032.604-8.32 2.09-11.407 4.874-.761 11.185 3.721 15.1 7.915 4.377 4.69 6.748 13.104-1.627 16.759-5.405-.48-12.894 1.127-16.493-1.164z"/><clipPath id="ye1kb"><use fill="#fff" xlink:href="#ye1ka"/></clipPath></defs><g><g transform="translate(-724 -2474)"><use fill="#fff" fill-opacity="0" stroke="#fdb822" stroke-miterlimit="50" stroke-width="6" clip-path="url(&quot;#ye1kb&quot;)" xlink:href="#ye1ka"/></g><g transform="translate(-724 -2474)"><use fill="#ffffff" xlink:href="#ye1kc"/></g></g></svg>