<svg xmlns="http://www.w3.org/2000/svg" xmlns:xlink="http://www.w3.org/1999/xlink" width="172" height="172" viewBox="0 0 172 172"><defs><path id="1fqpa" d="M1111 2474c47.496 0 86 38.503 86 86 0 47.496-38.504 86-86 86-47.497 0-86-38.504-86-86 0-47.497 38.503-86 86-86z"/><path id="1fqpc" d="M1100.548 2543.962c-2.251.725-5.212 4.275-7.19 6.747-2.143 2.679-4.286 7.143-7.189 6.979-2.377-.135-4.218-2.896-3.942-5.35.275-2.45 2.737-3.226 3.015-4.886-5.776 1.22-11.524 4.682-15.306 9.072-2.55 2.96-6.609 10.34-3.015 15.12 4.054 5.397 20.651 4.188 31.772 4.188 13.05 0 27.168.07 36.874.233 3.52.059 8.583.321 11.827 0 5.94-.59 10.412-6.572 7.885-12.794-1.107-2.726-3.886-4.154-6.262-6.514-3.548.268-6.895 6.056-10.204 6.048-2.695-.006-4.74-2.26-4.406-5.117.43-3.674 5.084-4.21 6.957-6.98-4.517-3.14-9.396.663-12.987 4.188-2.552 2.506-10.569 11.024-11.827 3.49-1.225-7.336 7.008-9.856 9.74-13.493-1.1-.292-2.41-.373-3.478-.698-3.628 2.106-6.862 2.875-10.205 5.816-2.298 2.02-6.17 9.444-9.74 9.538-2.386.061-4.65-2.18-4.638-4.653.018-3.687 8.691-9.441 8.812-11.632-1.921.659-4.558.075-6.493.698z"/><clipPath id="1fqpb"><use fill="#fff" xlink:href="#1fqpa"/></clipPath></defs><g><g transform="translate(-1025 -2474)"><use fill="#fff" fill-opacity="0" stroke="#fff" stroke-miterlimit="50" stroke-width="6" clip-path="url(&quot;#1fqpb&quot;)" xlink:href="#1fqpa"/></g><g transform="translate(-1025 -2474)"><use fill="#fff" xlink:href="#1fqpc"/></g></g></svg>