<svg xmlns="http://www.w3.org/2000/svg" xmlns:xlink="http://www.w3.org/1999/xlink" width="172" height="172" viewBox="0 0 172 172"><defs><path id="fnk0a" d="M1411 2474c47.496 0 86 38.503 86 86 0 47.496-38.504 86-86 86-47.497 0-86-38.504-86-86 0-47.497 38.503-86 86-86z"/><path id="fnk0c" d="M1438.797 2531c.769.338 3.328 2.854 3.252 5.586-.335-.053-.081-.695-.465-.698-6.743 9.347-19.278 18.037-34.613 19.554-7.197.713-13.606-.78-18.351-3.957-2.799-1.873-5.801-4.45-6.272-7.682 1.403.67 1.65 2.371 2.787 3.492 4.014 3.953 11.436 6.882 19.746 6.286 7.422-.533 14.952-4.004 20.674-7.45 6.12-3.685 10.559-9.313 14.403-13.502-.03-.9-.942-.918-1.161-1.63zm-6.737 1.861c-.207.104-.415.205-.465.466-.792-.06-1.206-.498-1.161-1.397.698-.67 1.856-.503 1.626.931zm-4.878 3.26c.266 2.058-1.169 3.935-2.556 5.121-4.938 4.225-14.906 5.636-23.694 6.053.888 2.097-3.673 2.642-2.323-.233-1.805-.132-2.957-.917-3.95-1.863-.185-1.382.265-2.821.93-3.724 3.187-4.33 17.872-8.336 27.644-7.217 1.585.182 3.007.711 3.949 1.862zm-33.22 3.259c.619 1.891-1.497 2.354-2.322 1.397-.526-1.799 1.454-2.398 2.323-1.397zm34.613 1.862c-.461.004-.295.635-.929.465-2.019-.956 1.146-3.193.93-.465zm-36.006 6.286c-.573.03-1.12.035-1.394-.233-.35-2.207 2.406-1.251 1.394.233zm24.856-.931c-1.685 3.028-2.3-2.514 0 0zm19.281 2.094c-1.127 3.535-1.175 7.196-.93 10.71-13.337 4.572-36.37 6.103-50.873 1.396v-5.587c1.66-.353 1.51-2.522 2.787-3.26.047 3.6.498 7.35 3.485 6.985 2.023-.248 1.43-2.647 3.02-3.725 2.345 1.577 1.912 5.94 5.11 5.82 2.324-.088 2.437-2.821 3.485-4.889 2.61 1.424 3.752 5.66 6.97 4.656 2.395-.747 1.84-4.282 3.948-5.82 2.416.634 1.89 3.629 3.717 4.423 4.642 2.02 4.598-3.913 5.808-7.216 2.881.354 2.877 4.29 5.807 3.957 3.2-.364 1.346-6.06 3.485-8.38 1.719-.884 2.939.577 4.181.93zm-28.34 1.164c1.276-5.349 4.402 2.832 0 0zm29.037 20.952c2.699 2.004 7.276 2.753 7.434 6.752.2 5.088-8.248 7.83-13.474 9.078-11.827 2.826-28.85 2.963-40.885 0-5.264-1.296-13.687-4.186-13.473-9.078.153-3.516 4.079-4.813 7.2-6.286.009-1.466.457-2.491.465-3.958 14.19 5.067 37.988 4.855 51.804-.465.468 1.16.672 2.585.929 3.957z"/><clipPath id="fnk0b"><use fill="#fff" xlink:href="#fnk0a"/></clipPath></defs><g><g transform="translate(-1325 -2474)"><use fill="#fff" fill-opacity="0" stroke="#fff" stroke-miterlimit="50" stroke-width="6" clip-path="url(&quot;#fnk0b&quot;)" xlink:href="#fnk0a"/></g><g transform="translate(-1325 -2474)"><use fill="#fff" xlink:href="#fnk0c"/></g></g></svg>