<svg xmlns="http://www.w3.org/2000/svg" xmlns:xlink="http://www.w3.org/1999/xlink" width="172" height="172" viewBox="0 0 172 172"><defs><path id="mgq1a" d="M510 2474c47.496 0 86 38.503 86 86 0 47.496-38.504 86-86 86-47.497 0-86-38.504-86-86 0-47.497 38.503-86 86-86z"/><path id="mgq1c" d="M489.374 2539.588c-9.188-2.537-16.034 2.133-15.322 10.706.793 9.551 12.485 13.571 17.875 17.92.82 6.782 2.198 13.002 3.019 19.782 8.257-4.425 25.745-4.842 36.215-2.095.957-6.332 2.254-12.323 3.25-18.618 4.41-2.564 11.204-7.698 12.304-14.662 1.372-8.682-4.862-14.377-14.161-11.87 1.497-10.89-18.834-11.358-20.662-3.025-2.634-9.128-21.177-6.658-22.518 1.862z"/><clipPath id="mgq1b"><use fill="#fff" xlink:href="#mgq1a"/></clipPath></defs><g><g transform="translate(-424 -2474)"><use fill="#fff" fill-opacity="0" stroke="#fff" stroke-miterlimit="50" stroke-width="6" clip-path="url(&quot;#mgq1b&quot;)" xlink:href="#mgq1a"/></g><g transform="translate(-424 -2474)"><use fill="#fff" xlink:href="#mgq1c"/></g></g></svg>