<svg xmlns="http://www.w3.org/2000/svg" xmlns:xlink="http://www.w3.org/1999/xlink" width="149" height="28" viewBox="0 0 149 28"><defs><path id="khk8a" d="M913.499 7473.099c0 1.911.04 3.783.04 5.694 0 5.98-1.345 9.843-8.479 9.843-1.427.04-2.895.04-4.321.04l-4.933-.04-3.189-.041c-7.95 0-13.045-.773-13.412-10.006-.04-1.138-.082-2.278-.082-3.415 0-9.437.734-13.87 11.17-14.033l5.105-.122c.775-.04 1.508-.04 2.283-.04 1.834 0 3.71.08 5.544.121 6.645.203 10.233 1.586 10.233 8.989v.488h-8.113c-.081-1.099-.204-2.237-1.386-2.644-1.1-.407-2.324-.407-3.506-.407-3.18 0-5.308-.04-8.488-.04-4.24 0-4.484 2.44-4.484 6.223v2.521c0 3.254.448 5.37 4.117 5.857.979.122 1.998.122 3.017.122 2.446 0 3.84.04 6.286.04 2.447 0 4.485-.528 4.485-3.293 0-.245 0-.53-.041-.773h-10.477v-5.084zm29.749-11.836v6.182H922.83v4.636h19.313v5.37h-19.313v4.799h20.417v6.141h-27.965v-27.128zm3.013 27.31v-27.129h7.73v27.13zm43.75-9.333c0 7.565-2.16 8.99-10.191 9.314-2.12.082-4.199.122-6.319.122l-4.227-.081c-6.93-.081-12.27-.284-12.882-8.785a66.443 66.443 0 0 1-.245-5.695c0-7.89 1.264-12.283 9.948-12.893 2.568-.203 5.177-.203 7.745-.203 3.384 0 5.898 0 9.282.366 5.667.61 6.441 4.596 6.564 9.436h-8.031c0-2.644-1.428-3.01-3.833-3.132-.774-.04-1.549-.04-2.323-.04h-2.283l-4.2.04c-4.47.04-4.511 1.993-4.511 7.118 0 5.531.285 6.995 6.196 7.159l3.22.08c1.428 0 1.904-.04 3.33-.04 2.813 0 4.607-.244 4.607-3.945h8.113c0 .366.04.773.04 1.179zm15.984-11.55l-2.364-6.59 5.87-.122 5.695.04c9.458 0 12.597 2.237 12.597 11.999v1.301c0 10.291-.612 13.79-12.842 14.196l-5.327.122c-.856.04-1.753.04-2.61.04a86.6 86.6 0 0 1-5.625-.203c-5.993-.447-9.58-2.481-9.866-9.03-.081-1.667-.081-3.335-.081-5.002 0-10.657 1.264-13.178 12.189-13.34l2.364 6.588c-2.771.081-5.585-.122-6.074 3.62-.122 1.057-.122 2.115-.122 3.173v1.098c0 4.473.285 6.222 5.218 6.345 1.468.08 2.976.08 4.444.08 1.427 0 1.903-.04 3.33-.04 3.832 0 6.36-.163 6.563-4.474.04-1.22.081-2.44.081-3.66 0-1.668-.081-4.19-1.222-5.247-.979-.854-3.262-.935-4.893-.935-2.73 0-4.593 0-7.325.04z"/></defs><g><g transform="translate(-879 -7461)"><use fill="#fdb822" xlink:href="#khk8a"/></g></g></svg>