<svg xmlns="http://www.w3.org/2000/svg" xmlns:xlink="http://www.w3.org/1999/xlink" width="109" height="109" viewBox="0 0 109 109"><defs><path id="dl0la" d="M923.5 88.779c1.56.432 2.34 1.237 2.34 2.416v5.303c0 2.102-1.076 3.152-3.229 3.152h-5.716V78.496h4.857c2.528 0 3.792 1.277 3.792 3.83v4.067c0 1.217-.681 1.964-2.044 2.238zm-3.761-1.356h1.332c1.086 0 1.63-.51 1.63-1.532v-3.3c0-1.02-.426-1.532-1.274-1.532h-1.688zm0 9.665h2.132c.75 0 1.126-.305 1.126-.914v-4.685c0-1.002-.563-1.503-1.689-1.503h-1.57zm11.165 2.562h-2.843V82.12c0-2.416 1.136-3.624 3.406-3.624h2.133c2.27 0 3.406 1.208 3.406 3.624v17.53h-2.843v-7.749h-3.259zm3.259-10.311v-7.042c0-.826-.415-1.238-1.244-1.238h-.77c-.83 0-1.245.412-1.245 1.238v7.042zm8.204 10.311h-2.844V78.496h2.844zm6.545 0h-2.843l-3.554-10.34v-.178l2.962-10.636h2.606l-2.991 10.518zm1.63 0V78.496h7.049v2.563h-4.207v6.424h3.732v2.563h-3.732v7.042h4.207v2.562zm9.092-21.154h5.568c2.173 0 3.258 1.208 3.258 3.624v5.215c0 1.846-.563 3.016-1.688 3.506l1.984 8.81h-2.695l-1.865-8.545h-1.719v8.544h-2.843zm2.843 10.194h1.866c.85 0 1.274-.51 1.274-1.532v-4.567c0-1.02-.425-1.532-1.274-1.532h-1.866zm13.654 10.96h-2.843v-7.777l-3.495-13.377h2.814l2.133 9.192h.088l1.926-9.192h2.813l-3.436 13.377zm-45.34 12.91c-.026-.877.441-1.324 1.05-1.324.37 0 .652.114 1.251.394.44.21.767.368 1.093.368.317 0 .467-.254.476-.736h.52c.044.973-.459 1.324-1.005 1.324-.352 0-.67-.105-1.278-.386-.414-.202-.74-.386-1.058-.386-.317 0-.51.219-.52.745zm7.085 1.84v-6.293h2.098v.763h-1.252v1.91h1.11v.763h-1.11v2.094h1.252v.763zm4.327-4.601v-.553c0-.251-.124-.376-.37-.376h-.132c-.241 0-.362.125-.362.376v1.043c0 .118.024.197.07.237.048.041.124.093.23.158l.802.43c.176.099.3.176.374.232.074.055.13.123.172.2.041.08.062.231.062.453v1.34c0 .708-.341 1.061-1.022 1.061h-.52c-.676 0-1.014-.385-1.014-1.156v-.315h.846v.34c0 .246.126.368.38.368h.149c.223 0 .335-.122.335-.367v-1.07c0-.116-.024-.196-.07-.236a1.708 1.708 0 0 0-.23-.158l-.802-.447a2.5 2.5 0 0 1-.383-.237.537.537 0 0 1-.172-.25 1.254 1.254 0 0 1-.053-.399v-1.288c0-.719.338-1.078 1.014-1.078h.528c.676 0 1.014.36 1.014 1.078v.614zm2.899-.93v5.531h-.846v-5.53h-.811v-.763h2.467v.763zm5.058 4.778v.753h-2.274v-1.937a1.1 1.1 0 0 1 .027-.263.575.575 0 0 1 .092-.197c.044-.061.122-.147.234-.258l.855-.816c.064-.064.115-.12.153-.166a.554.554 0 0 0 .08-.119.303.303 0 0 0 .026-.1c.003-.036.005-.082.005-.14v-1.167c0-.245-.12-.367-.361-.367h-.053c-.241 0-.362.122-.362.367v.65h-.845v-.702c0-.719.337-1.078 1.013-1.078h.44c.676 0 1.013.36 1.013 1.078v1.507c0 .118-.016.22-.048.308-.032.087-.116.195-.25.324l-.935.894c-.117.11-.185.187-.203.228a.371.371 0 0 0-.03.123 2.21 2.21 0 0 0-.005.166v.912zm1.911.753c-.675 0-1.013-.359-1.013-1.078v-4.137c0-.719.338-1.078 1.013-1.078h.59c.676 0 1.014.36 1.014 1.078v4.137c0 .72-.338 1.078-1.013 1.078zm.168-5.53c-.224 0-.335.122-.335.367v4.033c0 .245.126.367.378.367h.212c.223 0 .335-.122.335-.367v-4.033c0-.245-.126-.367-.379-.367zm2.159.63l-.194-.578a1.62 1.62 0 0 0 .555-.342c.153-.146.273-.304.361-.473h.088l.555.298v5.995h-.836v-5.057zm4.908 3.428h-.485v1.472h-.828v-1.472h-1.48l-.177-.71 1.64-4.111h.845v4.11h.485zm-1.225-3.147h-.044l-.802 2.437h.785zm3.199 2.778c-.027-.876.44-1.323 1.048-1.323.37 0 .653.114 1.252.394.44.21.767.368 1.093.368.317 0 .467-.254.476-.736h.52c.044.973-.459 1.324-1.005 1.324-.352 0-.67-.105-1.278-.386-.414-.202-.74-.386-1.058-.386-.317 0-.51.219-.52.745zm-8.49-81.803c.342.32.498.794.468 1.421-.03.627-.236 1.078-.616 1.35-.38.274-.947.393-1.7.357l-.677-.032-.068 1.416-1.136-.055.244-5.078 1.798.086c.782.037 1.344.216 1.686.535zm-.93 1.96c.143-.147.221-.367.235-.66.015-.293-.064-.506-.235-.638-.172-.132-.444-.207-.818-.224l-.648-.031-.082 1.708.764.036c.38.018.64-.046.784-.192zm7.161.136c-.13.804-.532 1.273-1.208 1.405l.984 2-1.382-.222-.857-1.78-.778-.126-.258 1.602-1.123-.18.81-5.02 1.907.306c.782.126 1.319.347 1.61.664.291.317.39.767.295 1.351zm-1.449.378c.16-.1.26-.288.304-.558.044-.27.002-.468-.126-.591-.128-.124-.372-.214-.731-.272l-.843-.136-.24 1.487.821.132c.384.062.656.041.815-.062zm7.334-.595l-.27.975-2.446-.676-.28 1.01 2.2.608-.26.932-2.199-.608-.282 1.017 2.523.697-.269.967-3.618-1 1.36-4.9zm5.522 4.147l-2.35 2.029-.625-.263-.185-3.09-1.242 2.95-1.05-.44 1.975-4.687 1.419.594.125 3.082 2.301-2.064 1.412.592-1.975 4.687-1.048-.44zm3.692-.246l.998.545-2.448 4.46-.998-.546zm1.886 5.48a.93.93 0 0 0 .44.718.924.924 0 0 0 .83.13c.287-.093.543-.308.77-.646l1.566-2.334.945.631-1.586 2.364c-.41.613-.896.97-1.455 1.072-.56.102-1.105-.024-1.634-.377-.529-.354-.854-.81-.973-1.367-.12-.559.025-1.143.433-1.75l1.585-2.365.945.631-1.565 2.334c-.227.338-.327.658-.301.958zm8.526 4.25l-2.876 1.176-.509-.447.814-2.989-2.122 2.4-.852-.75 3.37-3.814 1.154 1.015-.867 2.961 2.841-1.224 1.149 1.01-3.37 3.813-.854-.749zm7.269 5.99c-.015.468-.27.898-.762 1.29-.492.39-.967.533-1.423.428-.457-.105-.92-.452-1.39-1.04l-.422-.529-1.112.883-.708-.887 3.987-3.167 1.122 1.405c.487.61.723 1.15.708 1.617zm-2.089.595c.205.011.422-.075.652-.257.23-.183.339-.383.325-.598-.014-.215-.137-.47-.37-.761l-.404-.506-1.34 1.064.476.598c.236.296.457.449.661.46zm3.614 2.606a.443.443 0 0 0-.39.053.404.404 0 0 0-.19.359c-.001.159.077.474.236.945.16.47.21.883.154 1.235-.058.353-.28.651-.664.897-.386.244-.79.298-1.215.163-.423-.136-.785-.44-1.086-.91-.433-.679-.571-1.451-.414-2.315l1.065.125c-.111.72-.041 1.277.21 1.67.112.175.238.289.378.341.14.053.274.037.403-.045.13-.082.198-.2.206-.355.008-.154-.05-.414-.173-.778-.2-.575-.278-1.038-.235-1.39.044-.353.269-.658.677-.918.408-.259.816-.313 1.224-.16.408.151.752.445 1.031.883.183.287.316.604.401.953.085.349.104.687.06 1.014l-1.011-.04c.045-.55-.059-1.026-.312-1.422-.102-.16-.22-.261-.355-.305zm4.267 7.017c-.186.63-.635 1.12-1.346 1.466-.713.348-1.38.41-2.003.188-.623-.223-1.148-.769-1.575-1.64l-.766-1.562 4.579-2.234.79 1.613c.4.815.507 1.538.32 2.169zm-3.088.58c.358.135.762.093 1.212-.127.45-.22.734-.513.854-.882.12-.37.052-.813-.202-1.33l-.279-.569-2.783 1.358.317.647c.229.466.522.767.88.902zm1.4 7.68l-.638-2.133 4.885-1.452.566 1.897c.098.33.144.626.136.89-.008.262-.061.474-.16.635a1.318 1.318 0 0 1-.755.58c-.382.115-.703.076-.963-.115a1.398 1.398 0 0 1-.174-.138 4.87 4.87 0 0 1-.132-.15c.024.32-.04.602-.194.843-.154.24-.384.406-.692.498-.34.1-.675.073-1.005-.082-.383-.18-.675-.603-.875-1.273zm.61-1.32l.222.746c.093.311.201.534.325.667.123.133.297.166.523.098.226-.066.35-.193.374-.38.023-.186-.02-.461-.128-.823l-.192-.642zm1.984-.589l.154.516c.09.302.19.516.299.644.108.127.271.158.488.093.217-.064.34-.174.37-.33.029-.155-.004-.393-.1-.714l-.156-.523zm-1.14 8.495l1.001-.657-.374-2.099-1.167-.273-.212-1.189 5.404 1.273.192 1.081-4.632 3.053zm3.256-2.136l-1.57-.372.223 1.254zm2.115 4.015l.069 1.132-2.09.127 2.206 1.79.085 1.401-2.371-1.882c-.232.189-.665.538-1.299 1.047-.634.51-1.106.89-1.417 1.143l-.08-1.322 1.918-1.61-.598-.474-1.441.088-.07-1.133zm.07 9.77l-1.012-.047.118-2.528-1.049-.049-.106 2.274-.969-.045.107-2.275-1.056-.048-.122 2.608-1.005-.047.175-3.742 5.09.238zm-2.516 5.852c-.806-.126-1.278-.527-1.412-1.201l-2.002.989.218-1.38 1.783-.861.122-.776-1.606-.253.177-1.12 5.034.79-.3 1.905c-.124.78-.344 1.317-.66 1.608-.317.292-.768.392-1.354.299zm-.384-1.444c.102.158.29.259.56.301.272.043.47 0 .593-.127.124-.129.214-.372.27-.731l.133-.84-1.49-.235-.13.819c-.06.383-.04.654.064.813zm-3.874 4.44l.294-1.097 1.944.52 3.436-.903-.32 1.187-2.116.572 1.547 1.55-.32 1.188-2.521-2.498zm1.284 8.475l-3.77-1.639.454-1.04 3.77 1.638.576-1.32.903.392-1.608 3.681-.902-.392zm-2.275 6.475l-.883-.496 1.245-2.206-.915-.513-1.12 1.984-.845-.475 1.12-1.984-.922-.518-1.283 2.276-.877-.492 1.842-3.265 4.441 2.495zm-5.346 4.341l-1.413-2.76.404-.544 3.053.56-2.574-1.909.678-.91 4.09 3.032-.917 1.232-3.03-.615 1.46 2.723-.913 1.226-4.09-3.033.678-.911zm-3.46 5.947c-.467.047-.927-.148-1.38-.583-.454-.437-.658-.887-.613-1.352.044-.466.328-.97.85-1.51l.47-.488-1.023-.984.79-.818 3.67 3.528-1.25 1.294c-.543.562-1.047.867-1.514.913zm-.865-1.987c.016.203.13.407.341.61.212.204.424.285.637.243.212-.042.448-.196.707-.465l.45-.467-1.233-1.186-.531.55c-.263.272-.387.51-.37.715zm-3.832.028l3.3 3.876-.867.735-2.643-3.105-1.656 1.404-.656-.771zm-6.497 4.941l1.012.64 1.764-1.202-.23-1.174 1-.68 1.057 5.437-.91.62-4.693-2.96zm3.29 2.083l-.306-1.58-1.053.718zm-4.794 3.514l-1.966-3.603 1-.543 1.965 3.603 1.268-.689.47.863-3.534 1.92-.47-.862zm-5.777 3.716l-.392-.933 2.34-.977-.405-.967-2.105.88-.375-.893 2.105-.88-.409-.972-2.413 1.009-.39-.926 3.464-1.447 1.969 4.69zm-13.345 1.565l1.206-1.668-.696-1.938a.597.597 0 0 1-.018-.079c-.018-.104.013-.208.13-.228a.33.33 0 0 1 .168.02l1.964.628 1.633-1.257a.335.335 0 0 1 .151-.076c.116-.02.185.066.204.17.004.028.005.053.006.082l.006 2.058 1.706 1.159c.058.044.122.103.134.175.021.12-.095.19-.192.223l-1.96.643-.58 1.975c-.024.083-.077.182-.169.198-.092.016-.175-.06-.225-.13l-1.22-1.66-2.062.06c-.099 0-.235-.024-.256-.145-.013-.071.027-.149.07-.21zm-10.041 1.309c-.344-.319-.501-.792-.473-1.419.028-.627.232-1.078.612-1.353.38-.274.946-.394 1.699-.36l.677.03.064-1.417 1.136.051-.229 5.08-1.799-.08c-.781-.036-1.344-.213-1.687-.532zm.924-1.96c-.143.146-.221.365-.234.658-.013.294.066.506.237.637.172.132.445.206.819.223l.648.029.077-1.708-.765-.034c-.379-.017-.64.048-.782.195zm-7.155-.115c.127-.804.528-1.274 1.204-1.408l-.991-1.998 1.383.218.863 1.778.778.122.253-1.602 1.123.177-.793 5.022-1.909-.3c-.782-.122-1.32-.342-1.612-.658-.292-.316-.392-.766-.3-1.35zm1.448-.383c-.16.102-.26.29-.303.56-.043.27 0 .467.128.591.128.123.372.213.733.269l.842.133.235-1.487-.82-.13c-.385-.06-.656-.039-.815.064zm-7.335.617l.268-.975 2.447.668.277-1.01-2.201-.601.256-.933 2.201.6.279-1.017-2.525-.69.266-.968 3.621.989-1.344 4.904zm-5.518-4.122l2.343-2.037.626.26.195 3.09 1.233-2.954 1.05.436-1.959 4.694-1.42-.59-.136-3.082-2.294 2.073-1.414-.586 1.959-4.695 1.05.437zm-3.711.249l-1-.542 2.435-4.467.999.542zm-1.903-5.475a.93.93 0 0 0-.442-.716.925.925 0 0 0-.83-.128c-.287.093-.543.31-.77.648l-1.557 2.339-.947-.629 1.578-2.368c.409-.614.893-.973 1.452-1.076.56-.104 1.104.02 1.635.372.53.351.856.806.977 1.364.122.558-.02 1.142-.427 1.752l-1.578 2.369-.947-.629 1.558-2.338c.226-.339.325-.66.298-.96zm-8.532-4.219l2.872-1.184.51.446-.804 2.99 2.114-2.406.856.748-3.359 3.824-1.157-1.011.858-2.964-2.838 1.233-1.151-1.007 3.358-3.824.856.748zm-7.294-5.976c.013-.467.266-.898.757-1.29.491-.393.965-.537 1.422-.433.457.103.922.449 1.393 1.035l.424.528 1.11-.887.71.886-3.977 3.18-1.126-1.403c-.49-.61-.727-1.148-.713-1.616zm2.086-.6c-.204-.011-.421.076-.65.259-.23.183-.338.383-.324.598.015.216.138.47.372.76l.406.506 1.338-1.07-.48-.595c-.236-.295-.457-.448-.662-.458zm-3.62-2.593a.44.44 0 0 0 .389-.055.401.401 0 0 0 .19-.359c.001-.159-.079-.474-.24-.944-.16-.47-.213-.882-.156-1.235.056-.353.276-.652.661-.899a1.378 1.378 0 0 1 1.213-.166c.425.134.788.436 1.09.906.435.678.575 1.449.421 2.314l-1.066-.122c.11-.72.037-1.277-.215-1.668-.112-.176-.239-.29-.379-.341a.433.433 0 0 0-.403.046.424.424 0 0 0-.204.355c-.008.155.05.414.175.779.201.573.28 1.036.239 1.389-.042.352-.267.659-.674.92-.407.26-.815.315-1.224.163-.408-.15-.753-.444-1.034-.88a3.12 3.12 0 0 1-.403-.952 2.719 2.719 0 0 1-.063-1.014l1.01.037c-.043.551.063 1.026.317 1.421.102.16.221.261.356.305zm-4.284-6.995c.184-.63.632-1.122 1.342-1.471.71-.35 1.378-.415 2.002-.194.623.22 1.15.765 1.58 1.635l.77 1.56-4.57 2.248-.796-1.611c-.402-.813-.511-1.535-.328-2.167zm3.087-.59c-.36-.134-.763-.09-1.212.13-.45.221-.733.516-.852.885-.118.37-.05.813.207 1.33l.28.568 2.78-1.368-.32-.645c-.23-.466-.524-.765-.883-.9zm-1.427-7.683l.643 2.132-4.879 1.466-.572-1.893c-.1-.33-.146-.626-.14-.89.008-.263.06-.474.159-.636.185-.294.436-.488.753-.583.381-.115.703-.077.963.113.09.064.148.11.175.137l.133.15a1.33 1.33 0 0 1 .19-.844c.153-.24.384-.407.69-.5.34-.102.676-.076 1.006.078.384.179.677.602.879 1.27zm-2.589 1.919l-.155-.516c-.092-.302-.192-.516-.301-.643-.11-.127-.272-.157-.489-.092-.216.065-.339.175-.368.33-.03.156.005.395.101.715l.158.523zm1.983-.596l-.225-.746c-.094-.31-.203-.533-.327-.665-.124-.133-.298-.165-.524-.097-.226.068-.35.195-.372.381-.023.187.021.461.13.824l.194.64zm-.869-7.902l-.999.661.38 2.098 1.168.27.216 1.187-5.407-1.255-.196-1.081 4.622-3.068zm-3.249 2.147l1.571.367-.227-1.253zm-2.127-4.005l-.073-1.132 2.089-.133-2.211-1.784-.09-1.401 2.378 1.875c.231-.19.663-.54 1.295-1.052.632-.511 1.103-.893 1.413-1.147l.085 1.322-1.913 1.616.6.472 1.44-.092.073 1.132zm-.101-9.77l1.012.044-.11 2.529 1.049.045.1-2.274.968.042-.1 2.275 1.057.046.114-2.61 1.005.044-.163 3.743-5.092-.221zm2.499-5.863c.807.125 1.279.524 1.415 1.198l1.999-.996-.214 1.38-1.78.867-.12.777 1.607.247-.173 1.122-5.037-.776.295-1.905c.12-.781.34-1.318.655-1.61.316-.293.766-.394 1.353-.304zm.388 1.444c-.103-.158-.29-.259-.562-.3-.271-.042-.468.001-.592.13-.123.127-.212.371-.268.73l-.13.842 1.492.23.127-.82c.059-.383.037-.654-.067-.812zm3.86-4.455l-.292 1.097-1.945-.513-3.433.913.315-1.188 2.115-.577-1.55-1.546.314-1.188 2.53 2.489zm-1.31-8.473l3.776 1.628-.452 1.041-3.775-1.627-.572 1.322-.904-.389 1.596-3.686.904.39zm2.256-6.484l.885.493-1.239 2.21.917.511 1.113-1.987.847.472-1.114 1.987.923.514 1.277-2.279.879.49-1.833 3.27-4.448-2.48zm5.333-4.357l1.422 2.757-.403.544-3.055-.55 2.581 1.901-.676.912-4.1-3.02.915-1.235 3.031.606-1.468-2.718.91-1.229 4.1 3.02-.676.914zm3.443-5.958c.466-.048.927.146 1.381.58.455.434.66.884.617 1.35-.043.465-.325.97-.846 1.513l-.469.488 1.027.981-.787.82-3.68-3.517 1.245-1.298c.541-.563 1.045-.869 1.512-.917zm.87 1.985c-.016-.203-.13-.407-.343-.61-.212-.203-.424-.283-.637-.241-.212.043-.448.199-.706.468l-.45.468 1.238 1.182.53-.551c.262-.274.385-.512.368-.716zm3.82-.028l-3.313-3.865.864-.736 2.654 3.095 1.651-1.41.659.77zm6.495-4.972l-1.014-.637-1.76 1.208.233 1.173-.997.684-1.074-5.434.907-.622 4.703 2.944zm-3.296-2.073l.31 1.58 1.051-.722zm4.773-3.523l1.978 3.597-.997.546-1.978-3.597-1.266.693-.474-.86 3.529-1.932.474.861zm5.774-3.736l.394.93-2.337.986.409.965 2.102-.886.377.891-2.102.886.412.972 2.41-1.017.392.925-3.459 1.458-1.983-4.684zm13.342-1.603l-1.202 1.672.7 1.937c.009.027.013.052.018.08.018.103-.013.208-.129.228a.33.33 0 0 1-.169-.02l-1.966-.624-1.63 1.261a.346.346 0 0 1-.152.076c-.116.02-.185-.066-.204-.17-.005-.027-.005-.052-.006-.08l-.01-2.06-1.71-1.157c-.057-.043-.121-.101-.134-.174-.022-.12.094-.19.192-.223l1.958-.647.578-1.978c.023-.082.075-.182.167-.198.092-.017.176.06.226.129l1.224 1.658 2.062-.064c.1-.001.236.025.257.144.013.072-.027.15-.07.21z"/><path id="dl0lb" d="M957.75 68.092c.028-1.164-.595-1.679-.96-2.451 2.79-3.01 4.055-13.522-3.284-12.396 5.564-.03 5.626 8.717 2.464 11.442-1.001-1.18.641-2.953.82-4.904.283-3.051-.646-5.609-3.832-5.448-.792-1.528-2.002-2.64-3.422-3.541 1.648-.771 3.622-1.22 6.023-.954 8.882.98 8.061 14.712 2.19 18.252zm-12.32-11.85c2.325.01 2.125 3.773.684 4.63-1.46-.545-1.784-3.45-.685-4.63zm4.517 9.399c.718-1.193 1.927-1.897 2.464-3.27 1.015.492 6.099 5.305 3.285 5.857-1.957.384-4.482-1.694-5.75-2.587zm6.707 3.541c-8.491 7.233-24.528.677-22.176-12.395-.003 4.043 1.3 6.788 3.285 8.854.078-.61-.495-1.384-.821-2.317-2.102-6.014.95-12.545 8.487-11.577 1.246.16 2.154.691 3.149 1.362-1.17-2.02-5.735-3.628-9.035-2.315 5.69-2.92 13.026 1.269 13.142 7.355.082 4.354-3.378 7.677-6.708 9.262-1.108.528-2.79 1.377-3.97.272.525-2.067 2.094-2.922 3.422-4.494 1.03-1.22 3.295-3.472 2.464-5.722-1.118-3.029-7.226-3.241-7.94.818-.468 2.665 1.084 4.194 2.465 6.266-1.3 1.194-2.306 4.151.136 4.631 1.996.391 3.836-1.381 5.476-1.635 1.11-.172 3.288-.006 3.56.545-1.036.059-1.68.508-2.875.408 1.363.75 2.741-.077 3.97 0 1.26.08 2.416 1.103 3.97.682zm-12.457-2.997c2.526-1.33 7.33-5.73 4.655-8.99.718 4.627-2.863 6.863-4.655 8.99zm4.025 63.285c-24.923 0-45.2-20.176-45.2-44.974 0-24.8 20.277-44.975 45.2-44.975 24.922 0 45.199 20.175 45.199 44.975 0 24.798-20.277 44.974-45.2 44.974zm0-88.53c-24.137 0-43.774 19.539-43.774 43.556 0 24.016 19.637 43.555 43.774 43.555s43.773-19.539 43.773-43.555c0-24.017-19.636-43.556-43.773-43.556z"/></defs><g><g transform="translate(-894 -30)"><use fill="#fff" xlink:href="#dl0la"/></g><g transform="translate(-894 -30)"><use fill="#fdb822" xlink:href="#dl0lb"/></g></g></svg>