<svg xmlns="http://www.w3.org/2000/svg" xmlns:xlink="http://www.w3.org/1999/xlink" width="178" height="33" viewBox="0 0 178 33"><defs><path id="wq69a" d="M1202.826 7469.434c-4.59 0-5.302 1.374-6.326 4.103l-3.917 11.016h-6.945l5.105-14.167c1.874-4.604 5.277-6.744 8.997-6.744h5.223zm-58.126 14.941c-6.881-.813-6.014-5.969-5.144-8.246l.08-.157 4.451-12.35h6.628l-4.689 13.214c-.534 1.61.534 2.12 1.088 2.12.87 0 2.335-.235 3.165-2.591l.04-.118 4.471-12.625h6.826l-4.69 13.214c-.533 1.61.535 2.12 1.089 2.12.87 0 2.334-.235 3.165-2.591l.04-.118 4.471-12.625h6.658l-5.303 14.96c-1.533 3.751-4.62 6.029-9.526 6.029-3.798 0-5.54-2.906-5.54-2.906-1.424 1.492-3.956 3.063-7.28 2.67zm90.394-26.173l-9.497 26.703h-6.964l9.496-26.703zm25.343 20.852l5.46-15.393h6.806l-9.773 27.311-6.804.028 2.471-6.9c-.178.04-1.78.158-2.928.158-5.915 0-6.47-4.3-5.204-8.227l4.413-12.39h6.805l-4.603 12.928c-.56 1.817.429 2.485 1.616 2.485h1.741zm-156.559 5.421l-2.09 5.85h-6.904l9.496-26.703h8.33c4.134 0 6.944 3.24 6.944 6.754 0 5.262-3.601 9.935-4.036 10.367-1.345 1.335-3.364 3.732-7.874 3.732zm2.046-5.578c1.305 0 2.176.157 3.323-.393 1.148-.549 2.256-2.199 2.493-2.827.238-.628.792-1.256.99-3.69 0 0 .435-2.926-2.019-2.926h-1.325zm21.208 5.87c-4.51 0-7.587-3.212-7.28-7.774.237-3.534 1.78-7.736 4.036-10.131 1.621-1.723 4.075-3.652 8.902-3.652 5.698 0 6.846 4.712 6.846 7.107 0 2.042-1.108 6.754-3.482 9.895-2.375 3.142-5.303 4.556-9.022 4.556zm.396-12.153c-1.464 3.24-1.345 6.656.475 6.656 1.82 0 3.126-2.002 3.996-4.044 2.293-5.38.514-6.401-.673-6.401-1.528 0-2.681 1.317-3.798 3.79zm78.278 11.881l-2.09 5.849h-6.905l9.497-26.702h8.329c4.135 0 6.944 3.24 6.944 6.754 0 5.262-3.6 9.934-4.036 10.367-1.345 1.334-3.363 3.732-7.874 3.732zm2.006-5.284c1.305 0 2.176.157 3.323-.392 1.148-.55 2.255-2.2 2.493-2.827.237-.629.791-1.257.99-3.692 0 0 .434-2.925-2.019-2.925h-1.325zm-31.497-2.022c-.435.864.08 2.65 3.205 2.65h5.006l-1.702 4.83h-5.935c-6.311 0-7.142-4.731-7.142-6.812 0-1.453.213-3.684 2.255-7.736 2.374-4.712 5.738-6.597 10.486-6.597 5.737 0 6.924 3.298 6.924 4.672 0 3.064-.87 8.993-9.852 8.993zm3.64-4.457c.717 0 2.276.06 2.988-1.57.867-1.985-.495-2.435-1.444-2.435-1.643 0-2.374.648-3.057 2.277l-.594 1.728h2.107zm51.835 9.719c-1.524-2.462-2.018-5.301.118-10.72 3.187-8.081 10.723-8.1 13.69-8.1h7.262l-7.479 21.038h-5.46l.314-.898c-3.954 1.488-7.06.919-8.445-1.32zm12.108-12.919c-3.483 0-4.968 1.834-5.738 3.455-3.244 6.833 2.097 7.304 3.363 3.849z"/></defs><g><g transform="translate(-1095 -7458)"><use fill="#fdb822" xlink:href="#wq69a"/></g></g></svg>