<svg xmlns="http://www.w3.org/2000/svg" xmlns:xlink="http://www.w3.org/1999/xlink" width="187" height="25" viewBox="0 0 187 25"><defs><path id="wtepa" d="M437.692 7466.056h-9.433c-.765 0-1.147 1.222-.552 1.922.319.374 11.94 10.872 12.323 11.265.382.393.382.742.34 1.179-.043.437-.34 1.747-.893 3.93-.552 2.183-3.187 1.878-4.334 1.878h-16.7c-1.19 0-2.804-.35-2.38-2.052.426-1.703.638-2.883.638-2.883h6.416l-.297 1.18h8.881c.552 0 .935-.655.552-1.18-.382-.523-8.122-7.192-11.515-10.392-1.955-1.844-.816-3.36-.34-5.808.34-1.746 2.12-2.236 3.314-2.236h18.485c.977 0 2.082.403 1.742 1.713-.34 1.31-.765 3.406-.765 3.406h-5.906zm45.977 20.174h-14.277c-2.125 0-2.295-2.184-1.912-3.755.382-1.572 4.376-19.616 4.376-19.616h6.8s-3.91 17.433-4.165 18.436c-.255 1.005.297 1.18.722 1.18h9.306zm38.244-21.658c1.487-2.708 5.821-2.533 6.203 0a2621.4 2621.4 0 0 0 1.87 12.008l6.246-12.008c1.7-3.188 6.884-2.271 7.14 0 .453 4.043 3.356 21.658 3.356 21.658h-7.096l-2.507-15.938s-7.217 13.91-7.649 14.76c-.977 1.92-4.25 1.745-4.504 0-.325-2.23-2.21-14.586-2.21-14.586l-8.116 15.764h-3.909s10.763-20.908 11.175-21.658zm53.158 21.658s4.716-20.741 5.014-21.964c.594-2.445 6.713-1.965 7.563-.437.944 1.698 7.436 14.06 7.436 14.06l3.485-15.03h3.994l-4.887 21.886c-.467 2.096-5.778 2.358-6.67.699-1.067-1.983-8.244-15.458-8.244-15.458l-3.655 16.244zm-10.156-3.755c.552 0 .85-.35 1.02-.918.17-.567 3.06-13.58 3.187-14.147.127-.568.212-1.354-.51-1.354h-8.329c-.595 0-.85.437-.977.786-.128.35-3.187 14.235-3.315 14.76-.127.523.128.873.595.873zm.085-19.868c2.167 0 7.694-.014 9.05.252.936.184 2.338 1.32 1.998 2.935-.222 1.056-3.442 15.02-3.782 16.68-.34 1.66-2.062 3.213-3.272 3.537-1.955.524-8.626.524-9.39.524-2.168 0-7.012 0-9.094-.305-1.556-.229-2.21-1.441-1.87-2.926.34-1.484 3.952-17.38 4.164-18.427.213-1.048 1.318-1.79 2.635-2.018 1.317-.227 6.416-.252 9.56-.252 0 0-3.144 0 0 0zm-62.294 19.868c.552 0 .85-.35 1.02-.918.17-.567 3.06-13.58 3.187-14.147.127-.568.212-1.354-.51-1.354h-8.329c-.595 0-.85.437-.977.786-.128.35-3.187 14.235-3.315 14.76-.127.523.128.873.595.873zm.085-19.868c2.167 0 7.694-.014 9.05.252.936.184 2.338 1.32 1.998 2.935-.222 1.056-3.442 15.02-3.782 16.68-.34 1.66-2.062 3.213-3.272 3.537-1.954.524-8.626.524-9.39.524-2.168 0-7.012 0-9.094-.305-1.556-.229-2.21-1.441-1.87-2.926.34-1.484 3.952-17.38 4.165-18.427.212-1.048 1.317-1.79 2.634-2.018 1.317-.227 6.416-.252 9.56-.252 0 0-3.144 0 0 0zm-55.956 19.213l-2.386 4.41h-3.995s10.792-19.948 11.728-21.658c1.53-2.795 7.904-2.271 8.456 0 .698 2.867 5.227 21.658 5.227 21.658h-7.351l-1.078-4.41zm9.736-3.537l-2.434-9.956-5.388 9.956z"/></defs><g><g transform="translate(-416 -7462)"><use fill="#fdb822" xlink:href="#wtepa"/></g></g></svg>